<?xml version="1.0" encoding="utf-8"?>
<!-- Generator: Adobe Illustrator 24.3.0, SVG Export Plug-In . SVG Version: 6.00 Build 0)  -->
<svg version="1.1" id="Capa_1" xmlns="http://www.w3.org/2000/svg" xmlns:xlink="http://www.w3.org/1999/xlink" x="0px" y="0px"
	 viewBox="0 0 512 512" style="enable-background:new 0 0 512 512;" xml:space="preserve">
<style type="text/css">
	.st0{fill:#FFFFFF;}
</style>
<g>
	<path class="st0" d="M318.5,345c6.9,0,12.5,5.6,12.5,12.5v64.2c0,3.2,2.1,6.1,5.1,7.1l30,10c0.8,0.3,1.6,0.4,2.4,0.4
		c3.1,0,6.1-2,7.1-5.1c1.3-3.9-0.8-8.2-4.7-9.5l-24.9-8.3v-58.8c0-15.2-12.3-27.5-27.5-27.5H286v-73.9
		c14.2-11.8,24.2-28.2,28.1-46.1h24.4c37.2,0,67.5-30.3,67.5-67.5c0-4.1-3.4-7.5-7.5-7.5s-7.5,3.4-7.5,7.5c0,26.7-20,48.8-45.9,52.1
		c-3.7-16.9-18.7-29.6-36.6-29.6h-150c-18,0-33,12.7-36.6,29.6C96,191.3,76,169.2,76,142.5c0-4.1-3.4-7.5-7.5-7.5s-7.5,3.4-7.5,7.5
		c0,37.2,30.3,67.5,67.5,67.5h24.4c3.9,18,13.9,34.4,28.1,46.1v36.4c0,26.4,19.6,48.3,45,52v150c0,3.2,2.1,6.1,5.1,7.1l30,10
		c0.8,0.3,1.6,0.4,2.4,0.4c3.1,0,6.1-2,7.1-5.1c1.3-3.9-0.8-8.2-4.7-9.5l-24.9-8.3V345H318.5z M196,258.7c8.7-3.1,15-11.4,15-21.2
		V180h45v57.5c0,9.8,6.3,18.1,15,21.2V285h-75V258.7z M329.7,195h-21.9c-3.8,0-6.9,2.8-7.4,6.5c-2.2,16.8-11,32.4-24.1,43.2
		c-3.1-0.9-5.3-3.8-5.3-7.2V180h37.5C318.3,180,326.6,186.3,329.7,195z M166.6,201.5c-0.5-3.7-3.7-6.5-7.4-6.5h-21.9
		c3.1-8.7,11.4-15,21.2-15H196v57.5c0,3.4-2.2,6.2-5.3,7.2C177.6,233.9,168.8,218.3,166.6,201.5z M196.8,300H271v30h-37.5
		C215.4,330,200.2,317.1,196.8,300z"/>
	<path class="st0" d="M450.2,501.1l-9.5-18.9c-4.7-9.4-14.1-15.2-24.6-15.2h-95.3c-10.5,0-19.9,5.8-24.6,15.2l-9.5,18.9
		c-1.2,2.3-1,5.1,0.3,7.3s3.8,3.6,6.4,3.6h150c2.6,0,5-1.3,6.4-3.6S451.4,503.5,450.2,501.1z M305.6,497l4-8.1
		c2.1-4.3,6.4-6.9,11.2-6.9h95.3c4.8,0,9,2.6,11.2,6.9l4,8.1H305.6z"/>
	<path class="st0" d="M233.5,150c28.9,0,52.5-23.6,52.5-52.5v-45c0-7.3-3.4-13.9-9-18c1-6.9-1.2-14-6.4-19.1
		c-5.1-5.1-12.2-7.4-19.1-6.4c-4.2-5.6-10.8-9-18-9s-13.9,3.4-18,9c-6.9-1-14,1.2-19.1,6.4c-5.1,5.1-7.4,12.2-6.4,19.1
		c-5.6,4.2-9,10.8-9,18v45C181,126.4,204.6,150,233.5,150z M196,52.5c0-3.3,2.1-6.2,5.2-7.2c2.1-0.7,3.8-2.2,4.7-4.3
		c0.8-2,0.7-4.4-0.3-6.3c-1.5-2.9-1-6.4,1.4-8.8c2.3-2.3,5.8-2.9,8.8-1.4c2,1,4.3,1.1,6.3,0.3s3.6-2.6,4.3-4.7
		c1-3.1,3.9-5.2,7.1-5.2s6.2,2.1,7.1,5.2c0.7,2.1,2.2,3.8,4.3,4.7c2,0.8,4.4,0.7,6.3-0.3c2.9-1.5,6.4-1,8.8,1.4
		c2.3,2.3,2.9,5.8,1.4,8.8c-1,2-1.1,4.3-0.3,6.3s2.6,3.6,4.7,4.3c3.1,1,5.2,3.9,5.2,7.2v8.3c-9.5-9.7-22.8-15.8-37.5-15.8
		s-28,6.1-37.5,15.8L196,52.5z M233.5,60c20.7,0,37.5,16.8,37.5,37.5S254.2,135,233.5,135S196,118.2,196,97.5S212.8,60,233.5,60z"/>
</g>
</svg>
