<?xml version="1.0" encoding="utf-8"?>
<!-- Generator: Adobe Illustrator 24.3.0, SVG Export Plug-In . SVG Version: 6.00 Build 0)  -->
<svg version="1.1" id="Capa_1" xmlns="http://www.w3.org/2000/svg" xmlns:xlink="http://www.w3.org/1999/xlink" x="0px" y="0px"
	 viewBox="0 0 512 512" style="enable-background:new 0 0 512 512;" xml:space="preserve">
<style type="text/css">
	.st0{fill:#FFFFFF;}
</style>
<g>
	<g>
		<path class="st0" d="M278.3,50c4.8-5.3,7.7-12.3,7.7-20c0-16.5-13.5-30-30-30s-30,13.5-30,30c0,7.7,2.9,14.7,7.7,20
			c-17.8,8.4-30.2,26.5-30.2,47.5c0,28.9,23.6,52.5,52.5,52.5c28.9,0,52.5-23.6,52.5-52.5C308.5,76.5,296.1,58.4,278.3,50z M256,15
			c8.3,0,15,6.7,15,15s-6.7,15-15,15s-15-6.7-15-15S247.7,15,256,15z M256,60c8.7,0,16.7,3,23,7.9c-6.7,4.6-14.7,7.1-23,7.1
			s-16.3-2.5-23-7.1C239.3,63,247.3,60,256,60z M256,135c-20.7,0-37.5-16.8-37.5-37.5c0-6.6,1.7-12.7,4.7-18.1
			C232.7,86.3,244,90,256,90s23.3-3.7,32.8-10.6c3,5.4,4.7,11.5,4.7,18.1C293.5,118.2,276.7,135,256,135z"/>
	</g>
</g>
<g>
	<g>
		<path class="st0" d="M376,50c-17.9,0-32.5,14.6-32.5,32.5v15c0,13.3,8.1,25,20,30v25c0,4.1,3.4,7.5,7.5,7.5h7.5v2.5
			c0,12.4-10.1,22.5-22.5,22.5h-48.5c-3.3-11.5-13.9-20-26.5-20h-50c-12.6,0-23.2,8.5-26.5,20H156c-12.4,0-22.5-10.1-22.5-22.5V160
			h7.5c4.1,0,7.5-3.4,7.5-7.5v-25c11.9-5,20-16.7,20-30v-15c0-17.9-14.6-32.5-32.5-32.5s-32.5,14.6-32.5,32.5v70
			c0,4.1,3.4,7.5,7.5,7.5h7.5v2.5c0,20.7,16.8,37.5,37.5,37.5h47.5v59.8c-6.9,8.5-11.6,18.8-13.8,29.8c-3,15.2-12.8,60.9-12.9,61.4
			c-0.5,2.2,0.1,4.5,1.5,6.3s3.6,2.8,5.8,2.8h2.7l-27.2,128.7l-25.9,8.6c-3.9,1.3-6.1,5.6-4.7,9.5c1,3.1,4,5.1,7.1,5.1
			c0.8,0,1.6-0.1,2.4-0.4l30-10c2.5-0.8,4.4-3,5-5.6L202.1,360H241c3.5,0,6.6-2.5,7.3-5.9c0,0,3.1-14.4,6.4-29.8h2.6
			c3.3,15.4,6.4,29.8,6.4,29.8c0.7,3.5,3.8,5.9,7.3,5.9h38.9l28.7,136c0.5,2.6,2.4,4.7,5,5.6l30,10c0.8,0.3,1.6,0.4,2.4,0.4
			c3.1,0,6.1-2,7.1-5.1c1.3-3.9-0.8-8.2-4.7-9.5l-25.9-8.6L325.3,360h2.7c2.3,0,4.4-1,5.8-2.8c1.4-1.8,2-4.1,1.5-6.3
			c-0.1-0.5-9.9-46.2-12.9-61.4c-2.2-11.1-7-21.3-13.8-29.8V200H356c20.7,0,37.5-16.8,37.5-37.5V160h7.5c4.1,0,7.5-3.4,7.5-7.5v-70
			C408.5,64.6,393.9,50,376,50z M133.5,145h-15V82.5c0-9.6,7.9-17.5,17.5-17.5s17.5,7.8,17.5,17.5v15c0,8.3-5.9,15.5-14,17.1
			c-3.5,0.7-6,3.8-6,7.3V145z M218.5,192.5c0-6.9,5.6-12.5,12.5-12.5h50c6.9,0,12.5,5.6,12.5,12.5V225h-75V192.5z M218.5,240h75v15
			h-75V240z M318.7,345H316c0,0-38.9,0-38.9,0c-1.5-6.8-4-18.5-6.3-29.8c-0.7-3.5-3.8-6-7.3-6h-14.8c-3.5,0-6.6,2.5-7.3,6
			c-2.4,11.3-4.9,23-6.3,29.8h-38.9c0,0-0.1,0-0.1,0h-2.6c3-14.3,8.8-41.4,11-52.5c1.7-8.3,5.1-16,10.1-22.5h82.9
			c5,6.5,8.5,14.2,10.1,22.5C309.8,303.6,315.6,330.7,318.7,345z M393.5,145h-15v-23c0-3.6-2.5-6.6-6-7.3c-8.1-1.6-14-8.9-14-17.1
			v-15c0-9.6,7.9-17.5,17.5-17.5s17.5,7.8,17.5,17.5V145z"/>
	</g>
</g>
</svg>
