<?xml version="1.0" encoding="utf-8"?>
<!-- Generator: Adobe Illustrator 24.3.0, SVG Export Plug-In . SVG Version: 6.00 Build 0)  -->
<svg version="1.1" id="Layer_1" xmlns="http://www.w3.org/2000/svg" xmlns:xlink="http://www.w3.org/1999/xlink" x="0px" y="0px"
	 viewBox="0 0 512 512" style="enable-background:new 0 0 512 512;" xml:space="preserve">
<style type="text/css">
	.st0{fill:#FFFFFF;}
</style>
<g id="outline">
	<path class="st0" d="M80.7,214.7c-2.2,11,0.5,24.2,10.2,33.3c-9.7,9.1-12.4,22.2-10.2,33.3c2.2,11.1,9.7,22.2,22.2,26.9
		c-2.2,4.9-3.3,10.3-3,15.7c0.6,9.8,4.9,19,12.1,25.7v2.5H40c-4.4,0-8,3.6-8,8c0,1.6,0.5,3.1,1.3,4.4l29,43.6l-29,43.6
		c-2.5,3.7-1.5,8.6,2.2,11.1c1.3,0.9,2.9,1.3,4.4,1.3h80c4.4,0,8-3.6,8-8v-8h240v8c0,4.4,3.6,8,8,8h81.7c4.4,0,8-3.6,8-8
		c0-1.6-0.5-3.3-1.5-4.6l-30.6-43.5l29-43.4c2.4-3.7,1.5-8.6-2.2-11.1c-1.3-0.9-2.9-1.3-4.4-1.3h-72v-2.5
		c7.4-6.8,11.8-16.3,12.1-26.4c0.1-5.2-0.9-10.3-3-15c12.5-4.7,20-15.8,22.2-26.9c2.2-11-0.5-24.2-10.2-33.3
		c9.7-9.1,12.4-22.2,10.2-33.3s-9.7-22.1-22.1-26.8c5.5-12.1,2.9-25.3-3.3-34.6s-17.5-16.8-30.7-16.3c0.4-13.3-7-24.5-16.3-30.7
		s-22.5-8.8-34.6-3.3c-4.7-12.4-15.8-19.9-26.8-22.1s-24.2,0.5-33.3,10.2c-9.1-9.7-22.2-12.4-33.3-10.2s-22.1,9.7-26.8,22.1
		c-12.1-5.5-25.3-2.9-34.6,3.3s-16.8,17.4-16.3,30.7c-13.3-0.4-24.5,7-30.7,16.3s-8.8,22.5-3.3,34.6
		C90.4,192.6,82.9,203.7,80.7,214.7z M112,448H54.9l23.7-35.6c1.8-2.7,1.8-6.2,0-8.9L54.9,368H112V448z M128,432v-48h152
		c4.4,0,8-3.6,8-8s-3.6-8-8-8H128v-16h240v16h-56c-4.4,0-8,3.6-8,8s3.6,8,8,8h56v48H128z M144,248c0-57.4,46.6-104,104-104
		c57.4,0,104,46.6,104,104c0,35.7-18.3,69-48.6,88H192.6C162.2,317.1,143.9,283.8,144,248z M441.1,368l-23.7,35.6
		c-1.8,2.7-1.8,6.3,0.1,9l24.9,35.4H384v-80H441.1z M96.4,217.9c1.5-7.5,7.6-16.3,19.8-16.3h0.1c4.4,0.1,8.1-3.5,8.1-7.9
		c0-2.2-0.8-4.3-2.4-5.8c-8.8-8.7-6.9-19.3-2.6-25.7s13.3-12.2,24.7-7.4l0.1,0c4.1,1.7,8.8-0.3,10.4-4.4c0.8-1.9,0.8-4.1,0-6
		c0,0,0-0.1,0-0.1c-4.8-11.4,1-20.4,7.4-24.7s17-6.2,25.7,2.7c3.1,3.1,8.2,3.1,11.3,0c1.5-1.5,2.4-3.6,2.3-5.8
		c-0.1-12.3,8.7-18.5,16.3-20s18.1,0.8,22.7,12.3c1.7,4.1,6.3,6.1,10.4,4.4c2-0.8,3.6-2.4,4.4-4.4c4.6-11.5,15.1-13.8,22.7-12.3
		s16.4,7.6,16.3,20c-0.1,4.4,3.5,8.1,7.9,8.1c2.2,0,4.3-0.8,5.8-2.4c8.7-8.8,19.3-6.9,25.7-2.6s12.2,13.3,7.4,24.7c0,0,0,0.1,0,0.1
		c-1.7,4.1,0.3,8.8,4.4,10.4c1.9,0.8,4.1,0.8,6,0l0.1,0c11.4-4.8,20.4,1,24.7,7.4s6.2,17-2.7,25.7c-3.1,3.1-3.1,8.2,0,11.3
		c1.5,1.5,3.5,2.3,5.7,2.3h0.1c12.4-0.1,18.5,8.7,20,16.3s-0.8,18.1-12.3,22.7c-4.1,1.7-6.1,6.3-4.4,10.4c0.8,2,2.4,3.6,4.4,4.4
		c11.5,4.7,13.8,15.2,12.3,22.7c-1.5,7.5-7.6,16.3-19.8,16.3h-0.3c-4.4,0-8,3.6-8,8c0,2.1,0.9,4.2,2.4,5.7c4,3.8,6.3,9.1,6.2,14.6
		c-0.2,4.9-2,9.6-5.2,13.3h-45.3c48.7-45,51.7-121,6.6-169.7s-121-51.7-169.7-6.6s-51.7,121-6.6,169.7c2.1,2.3,4.3,4.5,6.6,6.6
		h-45.3c-3.1-3.6-5-8.1-5.2-12.9c-0.3-5.5,1.9-10.7,6.3-15c3.1-3.1,3.1-8.2,0-11.3c-1.5-1.5-3.5-2.3-5.7-2.3h-0.2
		c-12.2,0-18.3-8.8-19.8-16.3c-1.5-7.6,0.8-18.1,12.3-22.7c4.1-1.7,6.1-6.3,4.4-10.4c-0.8-2-2.4-3.6-4.4-4.4
		C97.2,235.9,94.9,225.4,96.4,217.9z"/>
	<path class="st0" d="M276,272h-4v-96c0-4.4-3.6-8-8-8h-32c-2.1,0-4.2,0.8-5.7,2.3c-10.3,10.3-21.5,19.5-33.6,27.6l-5.2,3.4
		c-3.7,2.5-4.7,7.4-2.2,11.1l16,24c2.5,3.7,7.4,4.7,11.1,2.2l11.6-7.7V272h-4c-11,0-20,9-20,20v20c0,4.4,3.6,8,8,8h80
		c4.4,0,8-3.6,8-8v-20C296,281,287,272,276,272z M280,304h-64v-12c0-2.2,1.8-4,4-4h12c4.4,0,8-3.6,8-8v-64c0-4.4-3.6-8-8-8
		c-1.6,0-3.1,0.5-4.4,1.3l-17.3,11.6l-7.1-10.7c11.5-7.8,22.2-16.6,32.2-26.2H256v96c0,4.4,3.6,8,8,8h12c2.2,0,4,1.8,4,4V304z"/>
	<path class="st0" d="M421.4,48c4.4,0,8-3.6,8-8V24c0-4.4-3.6-8-8-8s-8,3.6-8,8v16C413.4,44.4,416.9,48,421.4,48z"/>
	<path class="st0" d="M382.7,50.9l13.9,8c3.8,2.2,8.7,0.8,10.9-3c2.2-3.8,0.9-8.6-2.9-10.9l-13.9-8c-3.8-2.2-8.7-1-10.9,2.9
		C377.5,43.7,378.8,48.6,382.7,50.9C382.7,50.9,382.7,50.9,382.7,50.9z"/>
	<path class="st0" d="M386.7,92c1.4,0,2.8-0.4,4-1.1l13.9-8c3.8-2.2,5.2-7.1,3-10.9s-7.1-5.2-10.9-3c0,0-0.1,0-0.1,0.1l-13.9,8
		c-3.8,2.2-5.1,7.1-2.9,10.9C381.2,90.5,383.9,92,386.7,92z"/>
	<path class="st0" d="M421.4,112c4.4,0,8-3.6,8-8V88c0-4.4-3.6-8-8-8s-8,3.6-8,8v16C413.4,108.4,416.9,112,421.4,112z"/>
	<path class="st0" d="M438.1,82.9l13.9,8c3.8,2.2,8.7,0.8,10.9-3c2.2-3.8,0.9-8.6-2.9-10.9l-13.9-8c-3.8-2.2-8.7-1-10.9,2.9
		C433,75.7,434.2,80.6,438.1,82.9C438.1,82.9,438.1,82.9,438.1,82.9z"/>
	<path class="st0" d="M442.2,60c1.4,0,2.8-0.4,4-1.1l13.9-8c3.8-2.2,5.2-7.1,3-10.9s-7.1-5.2-10.9-3c0,0-0.1,0-0.1,0.1l-13.9,8
		c-3.8,2.2-5.1,7.1-2.9,10.9C436.6,58.5,439.3,60,442.2,60z"/>
	<path class="st0" d="M51.7,132.8c4.4,0,8-3.6,8-8V112c0-4.4-3.6-8-8-8s-8,3.6-8,8v12.8C43.7,129.2,47.3,132.8,51.7,132.8z"/>
	<path class="st0" d="M20,134.9l11.1,6.4c3.8,2.2,8.7,0.8,10.9-3c2.2-3.8,0.9-8.6-2.9-10.9L28,121.1c-3.8-2.2-8.7-1-10.9,2.9
		S16.1,132.6,20,134.9C19.9,134.9,20,134.9,20,134.9z"/>
	<path class="st0" d="M24,168c1.4,0,2.8-0.4,4-1.1l11.1-6.4c3.8-2.2,5.1-7.1,2.9-10.9c-2.2-3.8-7.1-5.1-10.9-2.9L20,153.1
		c-3.8,2.2-5.1,7.1-2.9,10.9C18.5,166.5,21.1,168,24,168z"/>
	<path class="st0" d="M51.7,184c4.4,0,8-3.6,8-8v-12.8c0-4.4-3.6-8-8-8s-8,3.6-8,8V176C43.7,180.4,47.3,184,51.7,184z"/>
	<path class="st0" d="M64.3,160.5l11.1,6.4c3.8,2.2,8.7,0.8,10.9-3c2.2-3.8,0.9-8.6-2.9-10.9l-11.1-6.4c-3.8-2.2-8.7-1-10.9,2.9
		C59.2,153.3,60.4,158.2,64.3,160.5C64.3,160.5,64.3,160.5,64.3,160.5z"/>
	<path class="st0" d="M68.3,142.4c1.4,0,2.8-0.4,4-1.1l11.1-6.4c3.8-2.2,5.2-7.1,3-10.9c-2.2-3.8-7.1-5.2-10.9-3c0,0-0.1,0-0.1,0.1
		l-11.1,6.4c-3.8,2.2-5.1,7.1-2.9,10.9C62.8,140.9,65.5,142.4,68.3,142.4z"/>
	<path class="st0" d="M452.3,256v12.8c0,4.4,3.6,8,8,8s8-3.6,8-8V256c0-4.4-3.6-8-8-8S452.3,251.6,452.3,256z"/>
	<path class="st0" d="M425.6,268c-2.2,3.8-0.9,8.7,2.9,10.9l11.1,6.4c3.8,2.2,8.7,1,10.9-2.9c2.2-3.8,1-8.7-2.9-10.9
		c0,0-0.1,0-0.1-0.1l-11.1-6.4C432.7,262.9,427.9,264.2,425.6,268z"/>
	<path class="st0" d="M439.7,290.7l-11.1,6.4c-3.8,2.2-5.2,7.1-3,10.9c2.2,3.8,7.1,5.2,10.9,3c0,0,0.1,0,0.1-0.1l11.1-6.4
		c3.8-2.2,5.1-7.1,2.9-10.9C448.3,289.8,443.5,288.5,439.7,290.7z"/>
	<path class="st0" d="M460.3,299.2c-4.4,0-8,3.6-8,8V320c0,4.4,3.6,8,8,8s8-3.6,8-8v-12.8C468.3,302.8,464.7,299.2,460.3,299.2z"/>
	<path class="st0" d="M492,297.1l-11.1-6.4c-3.8-2.2-8.7-0.8-10.9,3c-2.2,3.8-0.9,8.6,2.9,10.9l11.1,6.4c3.8,2.2,8.7,1,10.9-2.9
		C497.2,304.3,495.9,299.4,492,297.1C492.1,297.1,492,297.1,492,297.1z"/>
	<path class="st0" d="M484,265.1l-11.1,6.4c-3.8,2.2-5.2,7.1-3,10.9c2.2,3.8,7.1,5.2,10.9,3c0,0,0.1,0,0.1-0.1l11.1-6.4
		c3.8-2.2,5.1-7.1,2.9-10.9C492.6,264.2,487.8,262.9,484,265.1z"/>
</g>
</svg>
