<?xml version="1.0" encoding="utf-8"?>
<!-- Generator: Adobe Illustrator 24.3.0, SVG Export Plug-In . SVG Version: 6.00 Build 0)  -->
<svg version="1.1" id="Capa_1" xmlns="http://www.w3.org/2000/svg" xmlns:xlink="http://www.w3.org/1999/xlink" x="0px" y="0px"
	 viewBox="0 0 512 512" style="enable-background:new 0 0 512 512;" xml:space="preserve">
<style type="text/css">
	.st0{fill:#FFFFFF;}
</style>
<g>
	<path class="st0" d="M489.5,364.6h-467C10.1,364.6,0,374.7,0,387.1s10.1,22.5,22.5,22.5h467c12.4,0,22.5-10.1,22.5-22.5
		S501.9,364.6,489.5,364.6z M489.5,394.6h-467c-4.1,0-7.5-3.4-7.5-7.5s3.4-7.5,7.5-7.5h467c4.1,0,7.5,3.4,7.5,7.5
		S493.6,394.6,489.5,394.6z"/>
	<path class="st0" d="M122.2,286.6c0,7.3,2.9,14.3,8.1,19.4l20.1,20.1c13.1,13.1,38,23.4,56.5,23.4h52.3c23.2,0,42.8-15.1,49.8-35.9
		l33.1-94.1c1.1-3,3.9-5,7.1-5h83c3.2,0,6.1-2.1,7.1-5.1l10-30c1.3-3.9-0.8-8.2-4.7-9.5c-3.9-1.3-8.2,0.8-9.5,4.7l-8.3,24.9h-77.6
		c-9.5,0-18.1,6-21.2,15l-21.2,60.2c-8.4-17.9-26.5-30.3-47.5-30.3h-41.9l-7.7-7.7c32.8-38.3,31.1-96.1-5.1-132.4
		c-2.9-2.9-7.7-2.9-10.6,0c-2.9,2.9-2.9,7.7,0,10.6c30.6,30.6,32.1,79.6,4.3,112c-4-2.2-8.5-3.3-13.2-3.3c-7.3,0-14.3,2.9-19.4,8.1
		l-35.4,35.4C125,272.4,122.2,279.3,122.2,286.6L122.2,286.6z M296.6,297.1c0,18.1-12.9,33.3-30,36.7v-73.5
		C283.7,263.9,296.6,279,296.6,297.1z M140.8,277.8l35.4-35.4c2.4-2.4,5.6-3.7,8.8-3.7s6.4,1.2,8.8,3.7l15,15
		c1.4,1.4,3.3,2.2,5.3,2.2h37.5v75h-44.8c-14.6,0-35.6-8.7-45.9-19l-20.1-20.1c-2.4-2.4-3.7-5.5-3.7-8.8S138.5,280.2,140.8,277.8z"
		/>
	<path class="st0" d="M46.8,192.1c0.6,0,1.2,0,1.8-0.1c-3.1,16.5,1.7,34.2,14.4,46.9c10.2,10.2,23.7,15.4,37.1,15.4
		s26.9-5.1,37.1-15.4c20.5-20.5,20.5-53.8,0-74.2c-12.7-12.7-30.4-17.5-46.9-14.4c0-0.6,0.1-1.2,0.1-1.8c0-6-2.3-11.7-6.6-15.9
		c-7.1-7.1-16.5-11-26.5-11s-19.4,3.9-26.5,11c-7.1,7.1-11,16.5-11,26.5s3.9,19.4,11,26.5C35.1,189.8,40.8,192.1,46.8,192.1
		L46.8,192.1z M126.7,228.3c-14.6,14.6-38.4,14.6-53,0c-1.8-1.8-3.4-3.8-4.8-5.8l52-52c2.1,1.4,4,3,5.8,4.8
		C141.3,189.9,141.3,213.7,126.7,228.3z M105.4,164.7L63,207.1c-1.6-11.3,1.9-23.1,10.6-31.8c7.3-7.3,16.9-11,26.5-11
		C101.9,164.3,103.7,164.4,105.4,164.7z M41.5,143.1c4.3-4.3,9.9-6.6,15.9-6.6s11.7,2.3,15.9,6.6c1.4,1.4,2.2,3.3,2.2,5.3
		c0,2-0.8,3.9-2.2,5.3l-21.2,21.2c-1.4,1.4-3.3,2.2-5.3,2.2s-3.9-0.8-5.3-2.2c-4.3-4.3-6.6-9.9-6.6-15.9
		C34.9,153,37.2,147.4,41.5,143.1L41.5,143.1z"/>
	<path class="st0" d="M372.1,289.6c0,33.1,26.9,60,60,60s60-26.9,60-60s-26.9-60-60-60S372.1,256.6,372.1,289.6z M477.1,289.6
		c0,24.8-20.2,45-45,45s-45-20.2-45-45s20.2-45,45-45S477.1,264.8,477.1,289.6z"/>
</g>
</svg>
