<?xml version="1.0" encoding="utf-8"?>
<!-- Generator: Adobe Illustrator 24.3.0, SVG Export Plug-In . SVG Version: 6.00 Build 0)  -->
<svg version="1.1" id="Layer_1" xmlns="http://www.w3.org/2000/svg" xmlns:xlink="http://www.w3.org/1999/xlink" x="0px" y="0px"
	 viewBox="0 0 512 512" style="enable-background:new 0 0 512 512;" xml:space="preserve">
<style type="text/css">
	.st0{fill:#FFFFFF;}
</style>
<path class="st0" d="M252.7,365c4.1,0,7.5-3.4,7.5-7.5v-10.1c0-4.1-3.4-7.5-7.5-7.5c-4.1,0-7.5,3.4-7.5,7.5v10.1
	C245.2,361.7,248.6,365,252.7,365z"/>
<path class="st0" d="M364.1,365c4.1,0,7.5-3.4,7.5-7.5v-10.1c0-4.1-3.4-7.5-7.5-7.5c-4.1,0-7.5,3.4-7.5,7.5v10.1
	C356.6,361.7,360,365,364.1,365z"/>
<path class="st0" d="M308.4,370.4c7.5,0,14.6-3.2,19.4-8.6c2.7-3.1,2.4-7.9-0.7-10.6c-3.1-2.7-7.9-2.4-10.6,0.7
	c-2,2.2-4.9,3.5-8.1,3.5s-6.1-1.3-8.1-3.5c-2.7-3.1-7.5-3.4-10.6-0.7c-3.1,2.7-3.4,7.5-0.7,10.6
	C293.8,367.3,300.9,370.4,308.4,370.4z"/>
<path class="st0" d="M327.1,46.8c-14.7,0-26.7,12-26.7,26.7s12,26.7,26.7,26.7h20.1c0.7,4.3,1.8,11.2,3.6,22.3L304.3,170
	c-2.9,3-2.8,7.7,0.1,10.6c3,2.9,7.7,2.8,10.6-0.1l38.6-39.4l7.5,45.1l-87.3,89.7l-44.6-7.6l65-66.5c2.9-3,2.8-7.7-0.1-10.6
	c-3-2.9-7.7-2.8-10.6,0.1l-72.3,73.9l-52.1-8.8c-5.1-0.9-10.3-1.3-15.4-1.3c-1.9,0-3.8,0.1-5.7,0.2l-27-67.2h15.8
	c17.5,0,29.1-18.6,22.2-34.4c-6.5-15.1-21.4-25.1-38.1-25.6c-23-0.7-28.5-3.6-34.3-6.7c-7.5-4-15.8-6.4-24.4-6.4
	c-27.9,0-50.7,22.7-50.7,50.7c0,12.4,10.1,22.4,22.4,22.4h29.4L64,214.2H51.2c-3-5.6-8.9-9.3-15.7-9.3c-0.6,0-1.2,0-1.8,0.1
	l-17.7,1.8c-9.8,1-17,9.8-16,19.6c0,0,2.9,28.3,2.9,28.3c1,9.6,9.9,16.9,19.6,16l17.7-1.8c6.9-0.7,12.5-5.3,14.8-11.3l26.4,0
	l6.7,16.7c-3.6,2.8-7,5.9-10.1,9.2c-17.3,18.3-25.9,42.3-24.5,67.4c1.2,20.4,9.1,38.9,21.5,53.4l-45.6,46.6h-2.4
	c-13.8,0-25,11.2-25,25v12.5c0,9.3,7.5,16.8,16.8,16.8h93c9.3,0,16.8-7.5,16.8-16.8v-12.5c0-8-3.8-15.1-9.6-19.7l19.7-20.2
	c1.7,0.1,3.4,0.2,5.1,0.2c3.1,0,6.3-0.2,9.5-0.5c-0.6,4.3,0.1,8.6,2.1,12.5c3.7,7.6,11.3,12.3,19.7,12.3c3.4,0,6.6-0.8,9.7-2.2
	l52.9-26c3.5-1.7,6.5-4.3,8.6-7.5l79.9-9.5c19.5,19,45,29.4,72.4,29.4c1.9,0,3.8-0.1,5.8-0.2l1.1,6.5h-5c-13.8,0-25,11.2-25,25v12.5
	c0,9.3,7.5,16.8,16.8,16.8h93c9.3,0,16.8-7.5,16.8-16.8v-12.5c0-13.8-11.2-25-25-25h-12.4l-4.4-26.6c11.2-8.3,20.8-18.9,27.9-30.9
	c2.1-3.6,0.9-8.2-2.6-10.3c-3.6-2.1-8.2-0.9-10.3,2.6c-4.8,8.1-10.8,15.4-17.9,21.6l-24.9-149c32.9,13.5,55.1,45.8,55.1,82.3
	c0,6.6-0.7,13.2-2.2,19.6c-0.9,4,1.6,8.1,5.7,9c4,0.9,8.1-1.6,9-5.7c1.7-7.5,2.5-15.2,2.5-22.9c0-45.6-29.7-85.7-72.9-99.2
	l-8.6-51.6h21.9c3.3,5.7,9.4,9.4,16.3,9.4c1,0,18.8-2.9,18.8-2.9c10.1-1.7,17.1-11.5,15.4-21.6c0,0-8.9-53.1-8.9-53.1
	c-1.7-10-11.6-17.1-21.6-15.4c0,0-15.7,2.6-15.7,2.6c-6.9,1.2-12.7,6.2-14.8,12.9h-22.8l-3.6-21.4h4.2c24.2,0,47.7-8.7,66-24.4
	l26.6-22.9c11.2-9.6,12.5-26.5,2.9-37.7c-9.5-11.1-26.7-12.4-37.7-2.9l-26.6,22.9c-8.7,7.4-19.8,11.6-31.2,11.6H327.1z M16.7,165.5
	c0-19.7,16-35.7,35.7-35.7c6.1,0,12,1.7,17.4,4.6c7.1,3.8,14.4,7.7,40.9,8.5c10.9,0.3,20.6,6.8,24.8,16.6c2.7,6.2-1.5,13.5-8.5,13.5
	H24.1C20,172.9,16.7,169.6,16.7,165.5z M100.9,265.9l-31.3-77.9h25.3l27.9,69.5C115.2,259.3,107.8,262.1,100.9,265.9z M38.7,253.9
	L21,255.7c-1.6,0.2-3-1-3.1-2.6L15,224.8c-0.2-1.6,1-3,2.6-3.1l17.7-1.8c0.1,0,0.2,0,0.3,0c1.5,0,2.7,1.1,2.8,2.6l2.9,28.3
	C41.4,252.3,40.2,253.8,38.7,253.9z M75.4,242.5l-19.9,0l-1.3-13.4H70L75.4,242.5z M486.9,475.9v12.5c0,1-0.8,1.8-1.8,1.8h-93
	c-1,0-1.8-0.8-1.8-1.8v-12.5c0-5.5,4.5-10,10-10H477C482.4,465.9,486.9,470.4,486.9,475.9z M424.3,301.3l-29.6-5
	c-8.7-52.2-27.3-164.5-32.4-196.1h28.4L424.3,301.3z M379.1,293.7l-50-8.5c11.2-14,26.5-24.4,43.7-29.6L379.1,293.7z M412.8,405
	l28.2-3.3l8.3,49.3h-28.8L412.8,405z M364.2,204.4c1.8,11,3.8,23,6,36.2c-23.4,6.6-44,21.4-57.8,41.7l-20.7-3.5L364.2,204.4z
	 M113.7,488.4c0,1-0.8,1.8-1.8,1.8h-93c-1,0-1.8-0.8-1.8-1.8v-12.5c0-5.5,4.5-10,10-10h76.7c5.4,0,10,4.6,10,10L113.7,488.4
	L113.7,488.4z M103.3,450.9H50.5l35.2-36c10.1,8.5,22.1,14.8,34.9,18.2L103.3,450.9z M143.9,421.2c-19.4-0.1-38.5-7.8-52.5-21.3
	c-13.1-12.7-21.7-30.2-22.9-49.8c-1.2-21,6-41,20.4-56.3c14.3-15.1,34.3-23.8,54.9-23.8c4.3,0,8.6,0.4,12.9,1.1L426.9,317l11.7,69.8
	l-188.9,22.4c0.1,0-1-3.9-1.1-4.3c-4.4-12-18.7-17.7-30.2-12l-9.2,4.5l-11-16.6c7-10,10.8-21.9,10.8-34.2c0-33-26.8-59.8-59.8-59.8
	s-59.8,26.8-59.8,59.8c0,33,26.8,59.8,59.8,59.8c4.2,0,8.4-0.4,12.5-1.3l7.9,11.8c0,0-4.6,2.3-4.8,2.4
	C157.7,420.1,150.8,421.2,143.9,421.2z M189,367l-21.6-32.5c-5.9-8.9-17.9-12.3-27.6-7.7c-11.9,5.6-16.2,21-9,32l21.6,32.5
	c-1.1,0.1-2.2,0.1-3.3,0.1c-24.7,0-44.8-20.1-44.8-44.8c0-24.7,20.1-44.8,44.8-44.8c24.7,0,44.8,20.1,44.8,44.8
	C193.9,353.7,192.2,360.7,189,367z M143.3,350.4c-2.1-3.2-1.2-7.5,1.9-9.6c3.1-2.1,7.5-1.2,9.6,1.9l40.7,61.3l-12.5,6.2L143.3,350.4
	z M231,418.8c0,0-52.8,25.9-52.9,26c-3.4,1.7-7.6,0.2-9.3-3.2c-1.6-3.3-0.1-7.6,3.2-9.3c0,0,52.8-25.9,52.9-26
	C232.9,402.4,239,414.8,231,418.8z M346.5,412.8l51.5-6.1l3.8,22.8C381.6,430.3,362.3,424.3,346.5,412.8z M447.1,125.1
	c0.6-0.8,1.4-1.4,2.4-1.6l15.7-2.6c2-0.3,4,1.1,4.4,3.1l8.9,53.1c0.3,2-1.1,4-3.1,4.4l-15.7,2.6c-2.1,0.3-4-1.1-4.4-3.1
	c0,0-8.8-52.8-8.9-53.1C446.3,126.9,446.6,125.9,447.1,125.1z M432.7,136.7l6.4,38.1h-20.8l-6.4-38.1H432.7z M451,46.6
	c0,0,26.6-22.9,26.6-22.9c4.9-4.2,12.4-3.6,16.6,1.3c4.2,4.9,3.7,12.3-1.3,16.6l-26.6,22.9c-15.6,13.4-35.6,20.8-56.3,20.8h-83
	c-6.5,0-11.7-5.3-11.7-11.7c0-6.5,5.3-11.7,11.7-11.7h83C425,61.8,439.6,56.4,451,46.6z"/>
</svg>
