<?xml version="1.0" encoding="utf-8"?>
<!-- Generator: Adobe Illustrator 24.3.0, SVG Export Plug-In . SVG Version: 6.00 Build 0)  -->
<svg version="1.1" id="Capa_1" xmlns="http://www.w3.org/2000/svg" xmlns:xlink="http://www.w3.org/1999/xlink" x="0px" y="0px"
	 viewBox="0 0 512 512" style="enable-background:new 0 0 512 512;" xml:space="preserve">
<style type="text/css">
	.st0{fill:#FFFFFF;}
</style>
<g>
	<g>
		<path class="st0" d="M373.1,200c20.7,0,37.5-16.8,37.5-37.5c0-4.1-3.4-7.5-7.5-7.5s-7.5,3.4-7.5,7.5c0,12.4-10.1,22.5-22.5,22.5
			h-77.8c-3.3-11.5-13.9-20-26.5-20h-50c-12.6,0-23.2,8.5-26.5,20h-68.5c-12.4,0-22.5,10.1-22.5,22.5s10.1,22.5,22.5,22.5h45
			c4.1,0,7.5-3.4,7.5-7.5s-3.4-7.5-7.5-7.5h-45c-4.1,0-7.5-3.4-7.5-7.5s3.4-7.5,7.5-7.5h67.5v92.5c0,26.4,19.6,48.3,45,52v150
			c0,3.2,2.1,6.1,5.1,7.1l30,10c0.8,0.3,1.6,0.4,2.4,0.4c3.1,0,6.1-2,7.1-5.1c1.3-3.9-0.8-8.2-4.7-9.5l-24.9-8.3V345h107
			c3.6,0,6.7,2.5,7.3,6.1c0.4,2,0,4-1.1,5.6c-1.1,1.7-2.8,2.8-4.7,3.2l-83.3,15.7c-3.2,0.6-5.6,3.2-6.1,6.4l-4.1,31.4
			c-0.5,4.1,2.4,7.9,6.5,8.4c0.3,0,0.7,0.1,1,0.1c3.7,0,6.9-2.8,7.4-6.5l3.4-26l78-14.7c5.9-1.2,11-4.5,14.4-9.5s4.6-11,3.4-16.9
			c-2.1-10.5-11.3-18.2-22.1-18.2h-62V200H373.1z M206.4,192.5c0-6.9,5.6-12.5,12.5-12.5h17.5v15h-7.5c-4.1,0-7.5,3.4-7.5,7.5
			s3.4,7.5,7.5,7.5h7.5v15h-7.5c-4.1,0-7.5,3.4-7.5,7.5s3.4,7.5,7.5,7.5h7.5v15h-7.5c-4.1,0-7.5,3.4-7.5,7.5s3.4,7.5,7.5,7.5h7.5v15
			h-30V192.5z M281.4,330h-37.5c-18.1,0-33.3-12.9-36.7-30h74.2V330z M281.4,285h-30v-15h7.5c4.1,0,7.5-3.4,7.5-7.5
			s-3.4-7.5-7.5-7.5h-7.5v-15h7.5c4.1,0,7.5-3.4,7.5-7.5s-3.4-7.5-7.5-7.5h-7.5v-15h7.5c4.1,0,7.5-3.4,7.5-7.5s-3.4-7.5-7.5-7.5
			h-7.5v-15h17.5c6.9,0,12.5,5.6,12.5,12.5V285z"/>
	</g>
</g>
<g>
	<g>
		<path class="st0" d="M266.2,50c4.8-5.3,7.7-12.3,7.7-20c0-16.5-13.5-30-30-30s-30,13.5-30,30c0,7.7,2.9,14.7,7.7,20
			c-17.8,8.4-30.2,26.5-30.2,47.5c0,28.9,23.6,52.5,52.5,52.5c28.9,0,52.5-23.6,52.5-52.5C296.4,76.5,284,58.4,266.2,50z M243.9,15
			c8.3,0,15,6.7,15,15s-6.7,15-15,15s-15-6.7-15-15S235.6,15,243.9,15z M243.9,60c18,0,33,12.7,36.7,29.6
			c-20.2-2-38.6-11.2-52.3-26.1C233,61.2,238.3,60,243.9,60z M243.9,135c-20.7,0-37.5-16.8-37.5-37.5c0-9.7,3.7-18.5,9.7-25.1
			c16.7,18.8,39.6,30.2,64.6,32.3C277.3,121.9,262.1,135,243.9,135z"/>
	</g>
</g>
</svg>
