<?xml version="1.0" encoding="utf-8"?>
<!-- Generator: Adobe Illustrator 24.3.0, SVG Export Plug-In . SVG Version: 6.00 Build 0)  -->
<svg version="1.1" id="Layer_1" xmlns="http://www.w3.org/2000/svg" xmlns:xlink="http://www.w3.org/1999/xlink" x="0px" y="0px"
	 viewBox="0 0 512 512" style="enable-background:new 0 0 512 512;" xml:space="preserve">
<style type="text/css">
	.st0{fill:#FFFFFF;}
</style>
<path class="st0" d="M212.8,169.7c-4.7,0-8.6,3.8-8.6,8.6v9.3c0,4.7,3.8,8.6,8.6,8.6s8.6-3.8,8.6-8.6v-9.3
	C221.4,173.5,217.5,169.7,212.8,169.7z"/>
<path class="st0" d="M298.4,196.1c4.7,0,8.6-3.8,8.6-8.6v-9.3c0-4.7-3.8-8.6-8.6-8.6s-8.6,3.8-8.6,8.6v9.3
	C289.8,192.3,293.7,196.1,298.4,196.1z"/>
<path class="st0" d="M249.5,218.5c3.4,3.3,8.8,3.2,12.1-0.2c3.2-3.3,3.2-8.6,0-11.9l-4.2-4.2l5.8-11.6c2.1-4.2,0.4-9.4-3.8-11.5
	c-4.2-2.1-9.4-0.4-11.5,3.8l-8.6,17.1c-1.6,3.3-1,7.3,1.6,9.9L249.5,218.5z"/>
<path class="st0" d="M252,246.7c9.3,0,18.5-2.2,26.8-6.3l6.3-3.1c4.2-2.1,6-7.2,3.9-11.4c-2.1-4.2-7.2-6-11.4-3.9c0,0-0.1,0-0.1,0.1
	l-6.3,3.1c-5.9,3-12.5,4.5-19.1,4.5h-5c-4.7,0-8.6,3.8-8.6,8.6s3.8,8.6,8.6,8.6H252z"/>
<path class="st0" d="M418.2,383.6c0-33.1-26.8-59.9-59.9-59.9h-59.9v-42.4c23.4-11.6,39.3-34.4,42.3-60.3h9.1
	c14.2,0,25.7-11.5,25.7-25.7v-8.6c0-14.2-11.5-25.7-25.7-25.7h-8.6v-51.3c0-29.2-16.6-55.9-42.8-68.9C297.3,17.3,277.3-1,253.7,0
	c-22.1,1-39.8,18.7-40.8,40.8c-26.2,13-42.8,39.7-42.8,68.9v51.3h-8.6c-14.2,0-25.7,11.5-25.7,25.7v8.6c0,14.2,11.5,25.7,25.7,25.7
	h9.1c3,26,18.9,48.7,42.3,60.3v42.4h-59.9c-33.1,0-59.9,26.8-59.9,59.9v119.8c0,4.7,3.8,8.6,8.6,8.6h308.1c4.7,0,8.6-3.8,8.6-8.6
	V383.6z M341.2,178.3h8.6c4.7,0,8.6,3.8,8.6,8.6v8.6c0,4.7-3.8,8.6-8.6,8.6h-8.6V178.3z M170,203.9h-8.6c-4.7,0-8.6-3.8-8.6-8.6
	v-8.6c0-4.7,3.8-8.6,8.6-8.6h8.6V203.9z M255.6,15.7c11.5,0.1,21.6,7.7,24.6,18.8c-5.3-1.1-10.7-1.7-16.1-1.7H247
	c-5.4,0-10.8,0.6-16.1,1.7C234,23.4,244.1,15.7,255.6,15.7z M187.1,109.8c0-33.1,26.8-59.9,59.9-59.9h17.1
	c33.1,0,59.9,26.8,59.9,59.9v25.7l-20.5-15.4c-1.5-1.1-3.3-1.7-5.1-1.7h-85.6c-2.3,0-4.4,0.9-6.1,2.5l-19.6,19.6V109.8z
	 M187.1,212.5v-47.8l29.2-29.2h79.2l28.5,21.4v55.6c0,33.1-26.8,59.9-59.9,59.9H247C214,272.3,187.2,245.5,187.1,212.5z
	 M204.3,340.8h15.9c0.2,0,0.4-0.1,0.6-0.1c0.2,0,0.4,0.1,0.6,0.1c4.7,0,8.6-3.8,8.6-8.6v-44.8c5.6,1.3,11.4,2,17.1,2h17.1
	c5.8,0,11.5-0.7,17.1-2v44.8c0,4.7,3.8,8.6,8.6,8.6c0.1,0,0.2-0.1,0.4-0.1c0.1,0,0.2,0.1,0.4,0.1h16.4v71.4l-42.6,18.3
	c0.3-6.3,2.9-12.2,7.4-16.6l7.1-7.1c3.3-3.4,3.2-8.8-0.2-12.1c-3.3-3.2-8.6-3.2-11.9,0l-7.1,7.1c-1.4,1.5-2.8,3.1-4,4.8
	c-1.2-1.7-2.5-3.3-4-4.8l-7.1-7.1c-3.4-3.3-8.8-3.2-12.1,0.2c-3.2,3.3-3.2,8.6,0,11.9l7.1,7.1c4.4,4.4,7,10.4,7.4,16.6l-42.6-18.3
	V340.8z M152.5,434.8c-9.3,18.7-10.6,40.4-3.7,60.1h-38.7V383.6c0-23.6,19.2-42.8,42.8-42.8h0.1l0.4,92.1L152.5,434.8z M344.2,494.9
	H167.3c-7.9-16.6-7.7-36,0.5-52.5l1.8-3.6c0.6-1.2,0.9-2.5,0.9-3.8l-0.4-94.1h17.1v77c0,3.4,2,6.5,5.2,7.9l59.9,25.7
	c2.1,0.9,4.6,0.9,6.7,0l59.9-25.7c3.2-1.3,5.2-4.4,5.2-7.9v-77h17.1V435c0,1.3,0.3,2.5,0.9,3.7l1.7,3.6
	C351.5,458.9,351.7,478.1,344.2,494.9z M401.1,494.9h-38.5c6.6-19.7,5.3-41.1-3.5-59.9l-0.9-1.9v-92.3c23.6,0,42.8,19.2,42.8,42.8
	V494.9z"/>
</svg>
