<?xml version="1.0" encoding="utf-8"?>
<!-- Generator: Adobe Illustrator 24.3.0, SVG Export Plug-In . SVG Version: 6.00 Build 0)  -->
<svg version="1.1" id="Capa_1" xmlns="http://www.w3.org/2000/svg" xmlns:xlink="http://www.w3.org/1999/xlink" x="0px" y="0px"
	 viewBox="0 0 512 512" style="enable-background:new 0 0 512 512;" xml:space="preserve">
<style type="text/css">
	.st0{fill:#FFFFFF;}
</style>
<g>
	<g>
		<path class="st0" d="M296.2,63.8c-0.2-0.3-0.4-0.5-0.7-0.8c-4.8-5.5-10.6-9.9-17.2-13c4.8-5.3,7.7-12.3,7.7-20
			c0-16.5-13.5-30-30-30s-30,13.5-30,30c0,7.7,2.9,14.7,7.7,20c-6.6,3.1-12.4,7.6-17.2,13c-0.3,0.3-0.5,0.5-0.7,0.8
			c-7.7,9.1-12.3,20.9-12.3,33.7c0,28.9,23.6,52.5,52.5,52.5s52.5-23.6,52.5-52.5C308.5,84.7,303.9,72.9,296.2,63.8z M256,15
			c8.3,0,15,6.7,15,15s-6.7,15-15,15s-15-6.7-15-15S247.7,15,256,15z M256,60c8.7,0,16.7,3,23,7.9c-13.8,9.4-32.2,9.4-46,0
			C239.3,63,247.3,60,256,60z M256,135c-20.7,0-37.5-16.8-37.5-37.5c0-6.6,1.7-12.7,4.7-18.1C232.9,86.5,244.5,90,256,90
			s23.1-3.5,32.8-10.6c3,5.4,4.7,11.5,4.7,18.1C293.5,118.2,276.7,135,256,135z"/>
	</g>
</g>
<g>
	<g>
		<path class="st0" d="M350.3,331l-50.3-9.8c5.4-8.2,8.5-18.1,8.5-28.6V230H346c12.4,0,22.5-10.1,22.5-22.5S358.4,185,346,185h-38.5
			c-3.3-11.5-13.9-20-26.5-20h-50c-12.6,0-23.2,8.5-26.5,20H166c-12.4,0-22.5,10.1-22.5,22.5S153.6,230,166,230h37.5v62.5
			c0,14.3,5.7,27.2,15,36.7v159.9l-24.9,8.3c-3.9,1.3-6.1,5.6-4.7,9.5c1,3.1,4,5.1,7.1,5.1c0.8,0,1.6-0.1,2.4-0.4l30-10
			c3.1-1,5.1-3.9,5.1-7.1v-119H346c12.4,0,22.5-10.1,22.5-22.5C368.5,342.3,360.9,333,350.3,331z M308.5,200H346
			c4.1,0,7.5,3.4,7.5,7.5s-3.4,7.5-7.5,7.5h-37.5V200z M203.5,215H166c-4.1,0-7.5-3.4-7.5-7.5s3.4-7.5,7.5-7.5h37.5V215z
			 M218.5,192.5c0-6.9,5.6-12.5,12.5-12.5h50c6.9,0,12.5,5.6,12.5,12.5V215h-30v-12.5c0-4.1-3.4-7.5-7.5-7.5s-7.5,3.4-7.5,7.5V215
			h-30V192.5z M218.5,230h75v25h-75V230z M218.5,292.5V270h75v22.5c0,20.7-16.8,37.5-37.5,37.5S218.5,313.2,218.5,292.5z M346,360.5
			H233.5v-20.6c6.8,3.3,14.5,5.1,22.5,5.1c12,0,23.1-4.1,32-10.9l59.4,11.6c3.5,0.7,6.1,3.8,6.1,7.4
			C353.5,357.2,350.1,360.5,346,360.5z"/>
	</g>
</g>
</svg>
